<svg width="256" height="256" viewBox="0 0 256 256" fill="none" xmlns="http://www.w3.org/2000/svg">
<path d="M54.0483 103.206C74.2996 71.826 106.957 64.5284 137.608 71.6436C162.128 77.3359 173.489 93.8409 176.104 101.382C176.037 101.356 175.969 101.33 175.901 101.304C185.026 123.858 182.742 173.69 183.218 203.368C183.656 230.662 206.633 216.687 218.066 206.287C139.432 277.805 136.695 236.391 139.979 216.687C153.297 119.079 138.884 109.227 126.661 105.396C98.5945 99.0412 85.1249 122.654 79.4262 150.504C75.4489 184.421 79.4168 227.385 84.1518 247.154H43.4663C28.2871 166.879 44.1963 117.741 54.0483 103.206ZM94.3247 69.8194C86.7837 49.0816 11.7203 -8.44985 118.998 12.5313C155.094 19.5911 183.826 36.4932 193.252 48.4737C167.418 35.0337 119.319 15.451 133.593 68.7247C114.072 64.5285 104.037 67.0827 94.3247 69.8194Z" fill="white"/>
</svg>
