<svg width="24" height="24" viewBox="0 0 24 24" fill="none" xmlns="http://www.w3.org/2000/svg">
<path d="M9.70703 18.3438V18.7088C9.70703 19.9738 10.733 20.9998 11.999 20.9998V20.9998C13.265 20.9998 14.291 19.9738 14.291 18.7078V18.3428" stroke="white" stroke-width="1.5" stroke-linecap="round" stroke-linejoin="round"/>
<path d="M13.834 5.751V4.833C13.834 3.821 13.014 3 12.001 3V3C10.988 3 10.168 3.821 10.168 4.833V5.751" stroke="white" stroke-width="1.5" stroke-linecap="round" stroke-linejoin="round"/>
<path fill-rule="evenodd" clip-rule="evenodd" d="M6.563 10.1882V10.1882C6.563 7.68523 8.592 5.65723 11.094 5.65723H12.907C15.41 5.65723 17.438 7.68623 17.438 10.1882V10.1882V12.9852C17.438 13.5152 17.649 14.0242 18.024 14.3992L18.665 15.0402C19.04 15.4152 19.251 15.9242 19.251 16.4542V16.4542C19.251 17.4982 18.405 18.3442 17.361 18.3442H6.64C5.596 18.3442 4.75 17.4982 4.75 16.4542V16.4542C4.75 15.9242 4.961 15.4152 5.336 15.0402L5.977 14.3992C6.352 14.0242 6.563 13.5152 6.563 12.9852V10.1882Z" stroke="white" stroke-width="1.5" stroke-linecap="round" stroke-linejoin="round"/>
</svg>
